<svg width="160" height="160" viewBox="0 0 160 160" fill="none" xmlns="http://www.w3.org/2000/svg">
<g clip-path="url(#clip0_729_5072)">
<g clip-path="url(#clip1_729_5072)">
<path d="M8 8H152V152H8V8Z" fill="#141414"/>
<path fill-rule="evenodd" clip-rule="evenodd" d="M16 0H24H120H128H136H144V8L136 8H128L120 7.99999L24 8H16V0ZM8 16V8H16V16H8ZM8 144H0V136L1.25889e-05 24L0 16H8V24L8 136V144ZM16 152L16 144H8L8 152H16ZM24 152H16V160L24 160L120 160H128H136H144V152H152V144H160L160 136L160 24V16H152V8L144 8V16H152V24V136V144H144V152H136H128H120H24Z" fill="#00FC19"/>
</g>
<path d="M112 116H32V108H112V116ZM32 108H24V68H32V108ZM120 108H112V100H120V108ZM128 100H120V92H128V100ZM136 92H128V52H136V92ZM40 68H32V60H40V68ZM48 60H40V52H48V60ZM128 52H48V44H128V52Z" fill="#00FC19"/>
</g>
<defs>
<clipPath id="clip0_729_5072">
<rect width="160" height="160" fill="white"/>
</clipPath>
<clipPath id="clip1_729_5072">
<rect width="160" height="160" fill="white"/>
</clipPath>
</defs>
</svg>
